<svg width="160" height="160" viewBox="0 0 160 160" fill="none" xmlns="http://www.w3.org/2000/svg">
  <defs>
    <radialGradient id="shellbg" cx="0.5" cy="0.35" r="0.75">
      <stop offset="0" stop-color="#FFF4D6"/><stop offset="1" stop-color="#FCE3A6"/>
    </radialGradient>
    <linearGradient id="shellbody" x1="0" y1="0" x2="0" y2="1">
      <stop offset="0" stop-color="#FFD98A"/><stop offset="1" stop-color="#E8A33C"/>
    </linearGradient>
  </defs>
  <circle cx="80" cy="80" r="76" fill="url(#shellbg)"/>
  <g transform="translate(80 92)">
    <path d="M0 -50 C 38 -50 58 -18 58 6 C 58 22 30 30 0 30 C -30 30 -58 22 -58 6 C -58 -18 -38 -50 0 -50 Z" fill="url(#shellbody)" stroke="#C9821F" stroke-width="3"/>
    <path d="M0 -48 V 28 M0 -48 C 14 -20 18 6 10 28 M0 -48 C 28 -22 40 0 34 24 M0 -48 C -14 -20 -18 6 -10 28 M0 -48 C -28 -22 -40 0 -34 24" stroke="#C9821F" stroke-width="2.4" fill="none" stroke-linecap="round" opacity="0.85"/>
    <path d="M-12 -50 q 12 -10 24 0 q -12 6 -24 0 Z" fill="#E8A33C" stroke="#C9821F" stroke-width="2.4"/>
  </g>
</svg>
